<?xml version="1.0" encoding="utf-8"?>
<!-- Generator: Adobe Illustrator 22.1.0, SVG Export Plug-In . SVG Version: 6.00 Build 0)  -->
<svg version="1.1" id="Layer_1" xmlns="http://www.w3.org/2000/svg" xmlns:xlink="http://www.w3.org/1999/xlink" x="0px" y="0px"
	 viewBox="0 0 2985.6 1021" style="enable-background:new 0 0 2985.6 1021;" xml:space="preserve">
<style type="text/css">
	.st0{opacity:0.1;enable-background:new    ;}
	.st1{fill:url(#SVGID_1_);}
	.st2{fill:url(#SVGID_2_);}
	.st3{fill:#333333;}
	.st4{opacity:0.3;fill:#FFFFFF;enable-background:new    ;}
	.st5{opacity:0.5;}
	.st6{fill:#FFFFFF;}
	.st7{display:none;opacity:0.1;enable-background:new    ;}
	.st8{display:none;fill:url(#SVGID_3_);}
	.st9{fill:#6A4C9E;}
	.st10{font-family:'HelveticaNeue-ThinItalic';}
	.st11{font-size:350px;}
	.st12{opacity:0.7;}
	.st13{fill:#CC0000;}
</style>
<g>
	<path class="st0" d="M388.9,268.5c-0.2,1-0.2,1.9,0,2.9c0,0,3.1,20.5-0.5,29.7l-148.7,387c-10.6,28.5,3.6,60.1,32.1,71
		c28.5,10.9,60.1-3.1,71.5-31.4l148.7-387c2.9-7.5,19.6-22.2,19.6-22.2c0.7-0.7,1.4-1.4,1.9-2.2v-0.2c0-0.2,0.2-0.2,0.2-0.5
		c3.9-9.9-21-28.7-55.3-42c-34.3-13.3-65.4-15.9-69.3-5.8C389.2,267.8,388.9,268,388.9,268.5z"/>
	
		<linearGradient id="SVGID_1_" gradientUnits="userSpaceOnUse" x1="1679.6594" y1="560.9728" x2="1679.8815" y2="560.9254" gradientTransform="matrix(561.0148 0 0 -1011.5933 -942015.375 567965.3125)">
		<stop  offset="0" style="stop-color:#919191"/>
		<stop  offset="1" style="stop-color:#FFFFFF"/>
	</linearGradient>
	<path class="st1" d="M384.6,265.1c-0.2,1-0.2,1.9,0,2.9c0,0,3.1,20.5-0.5,29.7l-148.7,387c-10.6,28.5,3.6,60.1,32.1,71
		s60.1-3.1,71.5-31.4l148.7-387c2.9-7.5,19.6-22.2,19.6-22.2c0.7-0.7,1.5-1.4,1.9-2.2v-0.2c0-0.2,0.2-0.2,0.2-0.5
		c3.9-9.9-21-28.7-55.3-42c-34.3-13.3-65.4-15.9-69.3-5.8C384.8,264.6,384.8,264.9,384.6,265.1L384.6,265.1z"/>
	
		<linearGradient id="SVGID_2_" gradientUnits="userSpaceOnUse" x1="1676.6128" y1="561.4227" x2="1676.8145" y2="561.3755" gradientTransform="matrix(373.6914 0 0 -614.1078 -626240.5625 345343.1875)">
		<stop  offset="0" style="stop-color:#2C1453"/>
		<stop  offset="1" style="stop-color:#8350D7"/>
	</linearGradient>
	<path class="st2" d="M431.4,440.2L324,719.3c-8,20-30.9,30.4-51.4,22.5c-20.5-8-31.4-31.4-23.9-51.4l68.6-178.4
		c0,0,8.4-13.8,25.4-23.7c16.9-9.9,30.7-7.7,49.3-15.9C410.7,464.1,431.4,440.2,431.4,440.2L431.4,440.2z"/>
	<path class="st3" d="M483.5,304.1c2.1-5.6-13.3-16.7-34.4-24.9c-21.1-8.2-40-10.3-42.2-4.7c-2.1,5.6,13.3,16.7,34.4,24.9
		C462.5,307.6,481.4,309.7,483.5,304.1L483.5,304.1z"/>
	<path class="st4" d="M383.6,268c0,0,3.1,20.5-0.5,29.6L235.4,683.5c-10.6,28.4,3.6,59.9,31.9,70.8c4.8,1.9,9.8,3.1,14.9,3.4
		c-19.4-14.8-26.9-40.6-18.5-63.6l144.9-378.2C408.5,315.9,388.6,297.4,383.6,268L383.6,268z"/>
	<g transform="translate(420.01 104.5)" class="st5">
		<ellipse class="st6" cx="-83.9" cy="412.4" rx="4.3" ry="4.3"/>
		<ellipse class="st6" cx="-55.8" cy="443.5" rx="6.5" ry="6.5"/>
		<ellipse class="st6" cx="-98.8" cy="480.6" rx="12.2" ry="12.3"/>
		<ellipse class="st6" cx="-118.4" cy="503.2" rx="6.5" ry="6.5"/>
		<ellipse class="st6" cx="-92.8" cy="551.3" rx="4.3" ry="4.3"/>
	</g>
</g>
<path class="st7" d="M1073.8,474.5c13.2,10.7,37,4.4,53.1-13.1c17.1-18.5,19.5-42.3,6.3-53s-37-4.4-53.1,14.1
	C1063,441,1060.1,464.3,1073.8,474.5L1073.8,474.5z M1034.3,509c-3.4,0-9.8,6.3-4.4,8.7c7.3,2.4,10.7,8.7,10.7,17.5
	c-6.3,36.4-51.7,77.8-69.2,91.8c-4.4,4.4,1.9,14.1,6.3,10.7c9.7-7.8,30.2-23.8,46.8-45.2c-27.3,60.7-80.9,139.5-101.4,167.2
	c-79.9,110.3-201.3,211.9-284.6,211.9c-66.8,0-123.3-45.2-135.5-111.3c-1-7.3-10.7-8.8-8.8,1c15.1,90.9,85.3,126.3,170.1,126.3
	c93.1,0,202.2-67.1,262.7-136.1c97.5-111.3,160.3-239.6,143.8-312C1064,512.9,1045,508.6,1034.3,509L1034.3,509z M1633.2,751.5
	c25.8-6.3,46.8-20.4,46.8-42.8c0-2.4-4.4-2.4-4.4,0c0,13.1-15.1,24.3-32.2,26.7c-40,6.3-118.9-40.3-155.9-88.4
	c40,15.1,121.3-6.8,159.8-34.5c35.6-25.8,49.7-53.9,52.1-76.8c4.4-37.9-37-60.3-95-37.9c-37,15.1-81.4,47.6-127.7,108.9
	c48.7-80.2,144.7-211.4,238.8-295c114.5-101.6,180.8-82.1,78,25.8c-42.4,44.2-122.3,101.6-177.4,126.3c-17.1,7.3-8.8,17,3.4,11.7
	c58.5-25.8,136.5-78.7,183.7-122.9c139.4-133.6,22.9-234.2-131.1-92.8c-104.8,96.2-173,196.8-232.5,327.5
	c-20.5,24.8-35.6,45.2-54.1,60.7c-2.4,1.9-3.9,3.9-5.4,5.8c-51.2,43.7-131.6,103-181.8,103.5c-35.6,1-50.7-25.8-44.3-60.3
	c9.7-53.9,65.8-117.6,113.5-139.5c61.9-28.2,98.4,26.7,17.1,70.5c-31.2,16-68.2,24.8-83.3,24.8c-17.5,0-16.1,7.3-1,7.8
	c24.9,1,64.8-9.7,91.1-21.9c83.3-39.8,88.7-114.2-2-116.6c-98.4-3.4-216.4,80.2-215.4,185.6c1,47.6,39,73.4,91.1,73.4
	c87.2-1,164.7-67.1,228.6-125.4c9.3-7.8,18-16,26.8-24.8c-22.4,56.4-33.6,108.9-28.3,147.7c3.4,28.2,19.5,41.3,32.2,52
	c2.4,1.9,7.8,0,4.4-5.4c-18.5-21.9-13.2-87.5,12.2-151.1C1462.7,717,1546,771,1633.2,751.5L1633.2,751.5z M1528.5,567.4
	c101.9-90.9,141.8-9.7,77,39.8c-33.6,25.8-100.4,45.2-121.3,32.6l-4.4-2.4c-2.4-4.4-5.4-8.8-7.3-13.1
	C1489.5,603.3,1509,584.9,1528.5,567.4L1528.5,567.4z M2094.7,463.8c40.9,4.4,23.9-45.2-17.5-32.6c-18.5,5.3-36.5,40.8-49.7,71.4
	c-40.9,60.7-109.2,143.8-156.9,187.6c-42.4,36.4-81.4,46.2-33.6-21.9c19.5-27.2,44.4-56.4,58.5-85.5c33.6-73.4-38-105.9-96-61.7
	c-33.6,25.8-78.9,78.7-114.5,107.9c-9.7,7.8-7.3,19.4,2.4,11.7c28.3-22.8,78-75.3,120.9-105.9c35.6-27.2,49.7-9.7,29.2,13.1
	c-28.3,32.6-78,89.4-90.6,125.4c-17.5,53.9,3.4,77.8,39,77.8c48.7,0,121.3-75.8,170.1-136.1c16.1-20.4,33.6-44.2,48.7-67.1
	c-42.4,82.1-86.7,165.2-141.8,240.6c-78,105.9-175.4,185.6-268,185.6c-66.8,0-124.3-45.2-136.5-111.3c-1-7.3-9.7-8.8-8.8,1
	c15.1,90.9,85.3,126.3,170.1,126.3c93.1,0,182.7-53.9,245.6-120C1991.9,736.5,2007,586.3,2046,502.2
	C2064.5,463.8,2081.1,462.4,2094.7,463.8L2094.7,463.8z M2610.3,335.5c18.5-31.6,17.5-56.4-25.8-56.4c-32.7,1-92.1,23.8-119.9,45.2
	c-6.3,6.3-3.4,9.7,4.4,6.3c5.4-1.9,11.7-5.3,17.5-7.8c31.2-17,18.5,18.5,11.7,31.6c-37,64.6-102.8,155.5-137.4,200.7
	c-16.4,22.1-34.2,43.2-53.1,63.2c-33.1,31.6-98.9,87.5-149.1,105.9c-161.3,60.3,44.3-213.8,61.4-236.2
	c38-47.6,123.3-130.7,149.1-172.5c18.5-31.6,17.5-56.4-25.8-56.4c-32.6,1-92.1,23.8-119.9,45.2c-6.3,6.3-3.4,9.7,4.4,6.3
	c5.4-1.9,11.7-5.3,17.5-7.8c31.2-17,18.5,18.5,11.7,31.6c-37,64.6-102.8,155.5-137.4,200.7c-28.3,37.9-62.9,75.8-89.7,97.2
	c-10.7,8.8-4.4,17,6.3,9.7c9.7-6.3,23.9-20.4,40-36.9c-29.2,58.3-53.1,140.4,23.9,150.2c65.8,8.7,143.8-57.8,194.4-107.4l18-18
	l4.4-4.4c-29.2,58.3-53.1,140.4,23.9,150.2c84.3,11.7,189.1-101.6,229.5-143.4c7.8-7.8,5.4-21.4-7.8-7.8
	c-23.9,24.8-104.8,98.2-163.3,120c-161.3,60.3,44.3-213.8,61.4-236.2C2499.2,460,2584.5,376.9,2610.3,335.5L2610.3,335.5z"/>
<linearGradient id="SVGID_3_" gradientUnits="userSpaceOnUse" x1="1685.5001" y1="560.5788" x2="1685.5001" y2="561.5775" gradientTransform="matrix(2127.1675 0 0 -798.9282 -3583792 448842.6875)">
	<stop  offset="0" style="stop-color:#1A1A1A"/>
	<stop  offset="0.4026" style="stop-color:#4A4A4C"/>
	<stop  offset="1" style="stop-color:#333333"/>
</linearGradient>
<path class="st8" d="M1065,466.3c13.2,10.7,37,4.4,53.1-13.1c17.1-18.5,19.5-42.3,6.3-53c-13.2-10.7-37-4.4-53.1,14.1
	C1054.3,432.7,1051.8,455.6,1065,466.3L1065,466.3z M1026,500.8c-3.4,0-9.7,6.3-4.4,8.7c7.3,2.4,10.7,8.7,10.7,17.5
	c-6.3,36.4-51.7,77.8-69.2,91.8c-4.4,4.4,2,14.1,6.3,10.7c9.8-7.8,30.2-23.8,46.8-45.2c-27.3,60.7-80.9,139.5-101.4,167.2
	C835,861.8,713.6,963.4,630.3,963.4c-66.8,0-123.3-45.2-135.5-111.3c-1-7.3-10.7-8.8-8.8,1c15.1,90.9,85.3,126.3,170.1,126.3
	c93.1,0,202.2-67.1,262.7-136.1c97.5-111.3,160.3-239.6,143.8-312C1055.3,504.2,1036.7,499.8,1026,500.8L1026,500.8z M1624.5,743.3
	c25.8-6.3,46.8-20.4,46.8-42.8c0-2.4-4.4-2.4-4.4,0c0,13.1-15.1,24.3-32.2,26.7c-40,6.3-118.9-40.3-155.9-88.4
	c40,15.1,121.3-6.8,159.8-34.5c35.6-25.8,49.7-53.9,52.1-76.8c4.4-37.9-37-60.3-95-37.9c-37,15.1-81.4,47.6-127.7,108.9
	c48.7-80.2,144.7-211.4,238.8-295c114.5-101.6,180.8-82.1,78,25.8c-42.4,44.2-122.3,101.6-177.4,126.3c-17.1,7.3-8.8,17,3.4,11.7
	c58.5-25.8,136.5-78.7,183.7-122.9c139.4-133.6,22.9-234.2-131.1-92.8c-104.8,95.7-173,196.8-232.5,327.5
	c-20.5,24.8-35.6,45.2-54.1,60.7c-2.4,1.9-3.9,3.9-5.4,5.8c-51.2,43.7-131.6,103-181.8,103.5c-35.6,1-50.7-25.8-44.3-60.3
	c9.7-53.9,65.8-117.6,113.5-139.5c61.9-28.2,98.4,26.7,17.1,70.5c-31.2,16-68.2,24.8-83.3,24.8c-17.5,0-16.1,7.3-1,7.8
	c24.9,1,64.8-9.7,91.1-21.9c83.3-39.8,88.7-114.2-2-116.6c-98.4-3.4-216.4,80.2-215.4,185.6c1,47.6,39,73.4,91.1,73.4
	c87.2-1,164.7-67.1,228.6-125.4c9.3-7.8,18-16,26.8-24.8c-22.4,56.4-33.6,108.9-28.3,147.7c3.4,28.2,19.5,41.3,32.2,52
	c2.4,1.9,7.8,0,4.4-5.3c-18.5-21.9-13.2-87.5,12.2-151.1C1454.4,708.8,1537.7,762.7,1624.5,743.3L1624.5,743.3z M1519.7,558.6
	c101.9-90.9,141.8-9.7,77,39.9c-33.6,25.8-100.4,45.2-121.3,32.6l-4.4-2.4c-2.4-4.4-5.4-8.7-7.3-13.1
	C1480.7,595.1,1500.2,576.1,1519.7,558.6L1519.7,558.6z M2086,455.6c40.9,4.4,23.9-45.2-17.5-32.6c-18.5,5.3-36.6,40.8-49.7,71.4
	c-40.9,60.7-109.2,143.8-156.9,187.6c-42.4,36.4-81.4,46.2-33.6-21.9c19.5-27.2,44.3-56.4,58.5-85.5c33.6-73.4-38-105.9-96-61.7
	c-33.6,25.8-78.9,78.7-114.5,107.9c-9.7,7.8-7.3,19.4,2.4,11.7c28.3-22.8,78-75.3,120.9-105.9c35.6-27.2,49.7-9.7,29.2,13.1
	c-28.3,32.6-78,89.4-90.6,125.4c-17.5,53.9,3.4,77.7,39,77.7c48.7,0,121.3-75.8,170.1-136.1c16.1-20.4,33.6-44.2,48.7-67.1
	c-42.4,82.1-86.7,165.2-141.8,240.6c-78,105.9-175.4,185.6-268,185.6c-66.8,0-124.3-45.2-136.5-111.3c-1-7.3-9.7-8.8-8.8,1
	c15.1,90.9,85.3,126.3,170.1,126.3c93.1,0,182.7-53.9,245.6-120c126.7-133.6,141.8-283.8,180.8-367.9
	C2055.7,455.6,2072.8,453.6,2086,455.6L2086,455.6z M2601.6,326.8c18.5-31.6,17.5-56.4-25.8-56.4c-32.7,1-92.1,23.8-119.9,45.2
	c-6.3,6.3-3.4,9.7,4.4,6.3c5.4-1.9,11.7-5.3,17.5-7.8c31.2-17,18.5,18.5,11.7,31.6c-37,64.6-102.8,155.5-137.4,200.7
	c-16.4,22.1-34.2,43.2-53.1,63.2c-33.1,31.6-98.9,87.5-149.1,105.9c-161.3,60.3,44.3-213.8,61.4-236.2
	c38-47.6,123.3-130.7,149.1-172.5c18.5-31.6,17.5-56.4-25.8-56.4c-32.7,1-92.1,23.8-119.9,45.2c-6.3,6.3-3.4,9.7,4.4,6.3
	c5.4-1.9,11.7-5.3,17.5-7.8c31.2-17,18.5,18.5,11.7,31.6c-37,64.6-102.8,155.5-137.4,200.7c-28.3,37.9-62.9,75.8-89.7,97.2
	c-10.7,8.7-4.4,17,6.3,9.7c9.7-6.3,23.9-20.4,40-36.9c-29.2,58.3-53.1,140.4,23.9,150.2c65.8,8.7,143.8-57.8,194.4-107.4l18-18
	l4.4-4.4c-29.2,58.3-53.1,140.4,23.9,150.2c84.3,11.7,189.1-101.6,229.5-143.4c7.8-7.8,5.4-21.4-7.8-7.8
	c-23.9,24.8-104.8,98.2-163.3,120c-161.3,60.3,44.3-213.8,61.4-236.2C2490.9,451.2,2575.7,368.1,2601.6,326.8L2601.6,326.8z"/>
<text transform="matrix(1 0 0 1 610.624 647.0915)"><tspan x="0" y="0" class="st9 st10 st11">bootstrap</tspan><tspan x="1380.7" y="0" class="st12 st10 st11">-</tspan><tspan x="1503.9" y="0" class="st13 st10 st11">jekyll</tspan></text>
</svg>
